<svg width="321" height="335" viewBox="0 0 321 335" fill="none" xmlns="http://www.w3.org/2000/svg">
<path d="M148.297 293.983C148.553 293.983 148.682 293.872 148.682 293.643V283.018C148.682 282.804 148.569 282.696 148.344 282.696C148.186 282.696 148.067 282.778 147.972 282.941L146.825 284.827C146.706 284.982 146.643 285.117 146.643 285.23C146.643 285.32 146.678 285.404 146.744 285.475C146.81 285.544 146.891 285.581 146.981 285.581C147.105 285.581 147.2 285.515 147.26 285.383L147.909 284.27V293.643C147.909 293.872 148.036 293.983 148.297 293.983Z" fill="white"/>
<path d="M154.381 293.335C153.724 293.335 153.165 293.161 152.714 292.81C152.261 292.462 152.031 292.005 152.031 291.454C152.031 291.214 151.897 291.098 151.628 291.098C151.396 291.098 151.277 291.225 151.277 291.481C151.277 292.204 151.557 292.813 152.108 293.319C152.667 293.823 153.419 294.079 154.363 294.079C155.309 294.079 156.066 293.815 156.639 293.295C157.203 292.781 157.485 291.953 157.485 290.832V285.937C157.485 284.817 157.203 283.994 156.639 283.477C156.066 282.957 155.31 282.697 154.363 282.697C153.429 282.697 152.675 282.957 152.113 283.477C151.556 283.994 151.277 284.817 151.277 285.937V286.343C151.277 288.379 152.279 289.397 154.304 289.397C155.401 289.397 156.209 289.033 156.707 288.303V290.832C156.707 292.501 155.937 293.335 154.381 293.335ZM154.381 288.685C153.619 288.685 153.038 288.501 152.643 288.134C152.248 287.765 152.047 287.163 152.047 286.333V285.914C152.047 285.085 152.248 284.463 152.654 284.052C153.052 283.641 153.619 283.438 154.363 283.438C155.114 283.438 155.694 283.641 156.1 284.052C156.509 284.463 156.707 285.085 156.707 285.914V286.47C156.707 287.95 155.937 288.685 154.381 288.685Z" fill="white"/>
<path d="M159.924 290.708V290.89C159.924 291.979 160.209 292.789 160.773 293.303C161.335 293.82 162.087 294.078 163.023 294.078C163.975 294.078 164.727 293.82 165.288 293.303C165.85 292.789 166.127 291.979 166.127 290.89V290.708C166.127 289.236 165.589 288.274 164.51 287.826C165.402 287.441 165.855 286.618 165.855 285.375C165.855 283.593 164.914 282.696 163.023 282.696C161.151 282.696 160.22 283.593 160.22 285.375C160.22 286.617 160.666 287.44 161.559 287.826C160.473 288.274 159.924 289.236 159.924 290.708ZM160.99 285.42C160.99 284.078 161.668 283.408 163.023 283.408C164.392 283.408 165.077 284.078 165.077 285.42C165.077 286.786 164.392 287.464 163.023 287.464C161.667 287.464 160.99 286.786 160.99 285.42ZM163.023 288.21C164.576 288.21 165.36 289.031 165.36 290.663V290.866C165.36 291.689 165.157 292.311 164.753 292.731C164.355 293.155 163.777 293.366 163.039 293.366C162.298 293.366 161.723 293.155 161.311 292.741C160.9 292.322 160.694 291.699 160.694 290.866V290.663C160.694 289.031 161.475 288.21 163.023 288.21Z" fill="white"/>
<path d="M172.087 288.01L170.827 288.981L169.558 289.938C169.162 290.238 168.841 290.579 168.58 290.967C168.318 291.349 168.181 291.744 168.181 292.148V293.643C168.181 293.748 168.221 293.833 168.3 293.891C168.374 293.951 168.458 293.983 168.559 293.983H174.047C174.121 293.983 174.192 293.947 174.26 293.87C174.326 293.791 174.361 293.706 174.361 293.614C174.361 293.509 174.326 293.424 174.265 293.353C174.205 293.279 174.131 293.242 174.046 293.242H168.954V292.148C168.954 291.818 169.089 291.481 169.35 291.143C169.611 290.806 169.94 290.497 170.328 290.233L171.596 289.318C172.05 288.967 172.47 288.632 172.852 288.303C173.239 287.971 173.561 287.572 173.825 287.095C174.092 286.621 174.221 286.13 174.221 285.616C174.221 284.801 173.941 284.107 173.387 283.546C172.828 282.981 172.116 282.697 171.238 282.697C170.442 282.697 169.769 282.931 169.244 283.409C168.712 283.881 168.446 284.472 168.446 285.181C168.446 285.534 168.567 285.708 168.804 285.708C168.934 285.708 169.041 285.677 169.113 285.608C169.176 285.54 169.221 285.466 169.221 285.384C169.221 284.756 169.397 284.276 169.767 283.939C170.131 283.604 170.613 283.438 171.209 283.438C171.921 283.438 172.47 283.662 172.865 284.1C173.256 284.546 173.451 285.057 173.451 285.648C173.451 286.088 173.314 286.515 173.058 286.93C172.796 287.34 172.47 287.699 172.087 288.01Z" fill="white"/>
<path d="M60.5205 156.314C70.7212 155.074 75.8242 154.713 86.0249 154.312C86.2095 151.762 86.2939 150.483 86.473 147.936C85.8667 147.857 85.1044 147.777 84.1842 147.69C83.2663 147.604 82.317 147.506 81.3517 147.403C80.3839 147.3 79.4241 147.226 78.4801 147.179C77.5383 147.136 76.8054 147.105 76.2965 147.06C75.782 147.02 75.4211 146.96 75.1861 146.902C74.9595 146.841 74.8379 146.617 74.8379 146.205C74.8379 142.898 74.8379 141.235 74.8379 137.925C76.2755 137.819 76.9954 137.774 78.4376 137.687C85.5819 137.247 91.0804 135.427 94.9072 132.009C98.5176 128.784 100.343 124.396 100.343 118.778C100.343 116.073 99.9206 113.596 99.0397 111.437C96.2709 104.652 89.4169 101.185 78.7494 101.831C71.0856 102.292 67.2591 102.622 59.6032 103.579C59.6032 106.366 59.6032 107.764 59.6032 110.548C61.6894 110.503 62.7308 110.493 64.8144 110.487C64.8144 125.562 64.817 133.098 64.817 148.173C62.6703 148.829 61.5919 149.167 59.445 149.86C59.8743 152.445 60.0933 153.729 60.5205 156.314ZM74.8377 110.128C76.523 110.007 77.367 109.952 79.0521 109.852C82.776 109.633 85.5133 110.366 87.2461 111.988C88.9838 113.612 89.8514 115.859 89.8514 118.718C89.8514 120.353 89.6245 121.825 89.2371 123.098C88.0214 127.096 83.2611 129.277 74.8379 129.887C74.8377 121.985 74.8377 118.03 74.8377 110.128Z" fill="white"/>
<path d="M105.321 154.011C113.28 154.067 117.27 154.183 125.232 154.499C125.232 154.043 125.232 153.808 125.232 153.347C125.266 151.725 125.279 150.918 125.309 149.296C125.309 148.716 125.309 148.415 125.309 147.835C123.043 147.379 121.909 147.16 119.644 146.717C119.644 131.83 119.644 124.383 119.644 109.496C121.97 109.2 123.133 109.058 125.461 108.786C124.997 105.918 124.776 104.489 124.311 101.622C116.352 101.317 112.368 101.209 104.401 101.169C104.401 103.959 104.401 105.352 104.401 108.138C106.487 108.362 107.528 108.478 109.612 108.723C109.617 123.734 109.617 131.24 109.617 146.253C107.468 146.617 106.397 146.807 104.248 147.195C104.675 149.924 104.889 151.285 105.321 154.011Z" fill="white"/>
<path d="M131.664 154.779C146.092 155.465 153.31 156.005 167.736 156.897C167.736 150.309 167.736 147.018 167.736 140.427C165.286 140.274 164.062 140.203 161.61 140.045C161.058 143.384 160.784 145.05 160.23 148.384C153.648 147.972 150.346 147.756 143.764 147.379C145.04 145.565 146.433 143.553 147.938 141.348C149.444 139.138 152.603 134.597 157.429 127.724C162.258 120.854 165.921 115.35 168.427 111.217C167.817 108.33 167.506 106.894 166.892 104.006C152.807 103.13 145.752 102.608 131.664 101.938C131.664 108.525 131.664 111.819 131.664 118.401C134.051 118.514 135.243 118.578 137.635 118.704C138.215 115.363 138.51 113.699 139.096 110.363C145.868 110.73 149.246 110.938 156.019 111.357C145.694 126.218 140.528 133.639 130.208 148.666C130.789 151.113 131.076 152.332 131.664 154.779Z" fill="white"/>
<path d="M200.474 130.029C205.297 123.019 208.966 117.357 211.468 113.106C210.859 110.25 210.55 108.818 209.933 105.961C195.845 105.713 188.799 105.307 174.706 104.473C174.706 111.062 174.7 114.353 174.7 120.936C177.09 121.078 178.284 121.149 180.679 121.281C181.259 117.943 181.552 116.279 182.135 112.94C188.907 113.307 192.293 113.473 199.063 113.71C188.73 128.847 183.577 136.295 173.255 151.179C173.841 153.635 174.126 154.861 174.706 157.319C189.136 158.168 196.352 158.59 210.78 158.822C210.78 152.237 210.769 148.943 210.769 142.353C208.322 142.316 207.091 142.287 204.64 142.218C204.092 145.578 203.815 147.25 203.272 150.605C196.684 150.412 193.39 150.27 186.805 149.943C188.079 148.115 189.466 146.092 190.969 143.864C192.475 141.635 195.648 137.041 200.474 130.029Z" fill="white"/>
<path d="M240.873 158.299C248.84 157.846 252.819 157.516 260.786 156.538C261.095 154.109 261.248 152.904 261.551 150.477C260.143 150.103 259.439 149.916 258.028 149.52C251.867 132.017 248.795 123.167 242.637 105.349C238.837 105.583 236.935 105.673 233.143 105.805C227.07 124.211 224.037 133.351 217.977 151.538C216.294 152.086 215.448 152.353 213.763 152.885C214.163 155.277 214.359 156.474 214.757 158.866C222.078 158.927 225.741 158.901 233.067 158.65C233.067 156.324 233.072 155.158 233.072 152.832C230.377 152.437 229.019 152.226 226.323 151.778C227.484 147.898 228.072 145.957 229.232 142.07C235.242 141.925 238.241 141.796 244.243 141.395C245.351 145.061 245.9 146.894 247.004 150.546C244.552 151.372 243.328 151.775 240.873 152.558C240.873 154.858 240.873 156 240.873 158.299ZM231.608 133.964C233.692 127.004 234.728 123.52 236.814 116.54C238.431 123.357 239.253 126.756 240.873 133.56C237.168 133.768 235.319 133.85 231.608 133.964Z" fill="white"/>
<path d="M114.744 85.7808C114.923 85.6491 115.018 85.4722 115.018 85.2535V66.4413C115.018 65.9969 114.717 65.7805 114.105 65.7805C113.499 65.7805 113.195 65.9969 113.195 66.4413V85.2535C113.195 85.4722 113.28 85.6491 113.457 85.7808C113.631 85.9073 113.85 85.9707 114.105 85.9707C114.343 85.9707 114.559 85.9073 114.744 85.7808Z" fill="white"/>
<path d="M120.986 67.4627H125.625V85.2532C125.625 85.4719 125.714 85.6488 125.888 85.7805C126.06 85.907 126.279 85.9704 126.535 85.9704C126.774 85.9704 126.988 85.9073 127.17 85.7805C127.355 85.6488 127.444 85.4719 127.444 85.2532V67.4627H132.057C132.283 67.4627 132.455 67.3743 132.573 67.2041C132.692 67.034 132.75 66.8269 132.75 66.5922C132.75 66.3758 132.692 66.1847 132.573 66.0228C132.455 65.859 132.283 65.7799 132.057 65.7799H120.986C120.761 65.7799 120.595 65.8645 120.469 66.0358C120.353 66.2083 120.292 66.4023 120.292 66.6187C120.292 66.8534 120.355 67.0552 120.485 67.2198C120.614 67.3795 120.78 67.4627 120.986 67.4627Z" fill="white"/>
<path d="M134.963 85.1953C134.963 85.4196 135.071 85.6016 135.298 85.7491C135.517 85.8968 135.759 85.9704 136.021 85.9704C136.427 85.9704 136.667 85.8148 136.743 85.5039L138.02 81.2473H145.654L146.923 85.501C147.034 85.8122 147.263 85.9704 147.616 85.9704C147.872 85.9704 148.12 85.8968 148.362 85.7462C148.6 85.5984 148.721 85.4193 148.721 85.2081C148.721 85.1895 148.716 85.1634 148.705 85.129C148.695 85.0921 148.689 85.0683 148.689 85.0499L142.93 66.2493C142.787 65.8235 142.418 65.6124 141.832 65.6124C141.249 65.6124 140.891 65.8235 140.761 66.2467L134.986 85.0051C134.968 85.0398 134.963 85.1029 134.963 85.1953ZM141.846 68.5163L145.182 79.6704H138.494L141.846 68.5163Z" fill="white"/>
<path d="M155.069 65.7802C154.466 65.7802 154.162 65.9966 154.162 66.441V85.2532C154.162 85.4719 154.241 85.6487 154.407 85.7805C154.576 85.907 154.766 85.9704 154.99 85.9704H163.854C164.26 85.9704 164.465 85.6831 164.465 85.1133C164.465 84.5607 164.26 84.2853 163.854 84.2853H155.985V66.4407C155.984 65.9966 155.681 65.7802 155.069 65.7802Z" fill="white"/>
<path d="M169.711 66.441V85.2532C169.711 85.4719 169.801 85.6487 169.972 85.7805C170.152 85.907 170.365 85.9704 170.626 85.9704C170.863 85.9704 171.074 85.9073 171.259 85.7805C171.443 85.6487 171.536 85.4719 171.536 85.2532V66.441C171.536 65.9966 171.232 65.7802 170.626 65.7802C170.017 65.7802 169.711 65.9966 169.711 66.441Z" fill="white"/>
<path d="M183.846 65.6127C183.261 65.6127 182.91 65.8238 182.778 66.247L177.005 85.0055C176.987 85.0398 176.977 85.1029 176.977 85.1954C176.977 85.4196 177.087 85.6017 177.309 85.7491C177.536 85.8969 177.778 85.9704 178.034 85.9704C178.443 85.9704 178.683 85.8148 178.757 85.5039L180.041 81.2473H187.668L188.939 85.501C189.05 85.8122 189.282 85.9704 189.628 85.9704C189.889 85.9704 190.136 85.8969 190.374 85.7462C190.617 85.5985 190.733 85.4193 190.733 85.2082C190.733 85.1895 190.727 85.1634 190.722 85.1291C190.717 85.0921 190.712 85.0683 190.712 85.0499L184.949 66.2493C184.798 65.8238 184.434 65.6127 183.846 65.6127ZM180.51 79.6704L183.868 68.5164L187.201 79.6704H180.51Z" fill="white"/>
<path d="M197.088 85.9707C197.328 85.9707 197.539 85.9076 197.728 85.7808C197.911 85.6491 198.002 85.4722 198.002 85.2535V69.9763L205.682 84.9211C206.03 85.62 206.436 85.9707 206.898 85.9707C207.135 85.9707 207.349 85.9076 207.533 85.7808C207.715 85.6491 207.805 85.4722 207.805 85.2535V66.4413C207.805 65.9969 207.509 65.7805 206.898 65.7805C206.289 65.7805 205.985 65.9969 205.985 66.4413V81.7464L198.527 67.0479C198.084 66.2039 197.604 65.7805 197.087 65.7805C196.483 65.7805 196.18 66.0073 196.18 66.4689V85.2538C196.18 85.4725 196.267 85.6494 196.441 85.7811C196.618 85.9073 196.832 85.9707 197.088 85.9707Z" fill="white"/>
<path d="M139.275 36.4031C141.179 36.4031 150.934 36.4031 160.499 36.4031C170.064 36.4031 179.822 36.4031 181.726 36.4031C181.304 24.2009 189.021 12.4207 189.021 12.4207C188.068 13.3319 187.177 14.1678 186.344 14.951C186.362 14.839 186.37 14.7256 186.37 14.6092C186.37 13.523 185.497 12.6461 184.411 12.6461C183.327 12.6461 182.449 13.523 182.449 14.6092C182.449 15.6906 183.327 16.5741 184.411 16.5741C184.471 16.5741 184.524 16.5581 184.59 16.5529C173.487 26.5759 173.796 22.9335 173.865 13.7498C173.999 13.7786 174.144 13.7969 174.286 13.7969C175.37 13.7969 176.249 12.9163 176.249 11.8324C176.249 10.7461 175.37 9.86895 174.286 9.86895C173.202 9.86895 172.324 10.7461 172.324 11.8324C172.324 12.4745 172.636 13.035 173.108 13.3936C168.094 21.5479 166.275 21.6587 162.327 12.4495C162.788 12.7171 163.318 12.8782 163.893 12.8782C165.65 12.8782 167.073 11.4581 167.073 9.70026C167.073 8.14459 165.955 6.85329 164.479 6.58078C165.138 4.21922 162.129 1.82566 160.499 0.507019C158.872 1.82566 155.86 4.21922 156.517 6.58078C155.04 6.85358 153.927 8.14459 153.927 9.70026C153.927 11.4581 155.348 12.8782 157.102 12.8782C157.677 12.8782 158.213 12.7174 158.674 12.4495C154.724 21.6587 152.906 21.5479 147.891 13.3936C148.363 13.035 148.676 12.4745 148.676 11.8324C148.676 10.7461 147.793 9.86895 146.712 9.86895C145.625 9.86895 144.75 10.7461 144.75 11.8324C144.75 12.9163 145.625 13.7969 146.712 13.7969C146.857 13.7969 146.997 13.7786 147.134 13.7498C147.2 22.9338 147.508 26.5759 136.406 16.5529C136.469 16.5584 136.524 16.5741 136.596 16.5741C137.674 16.5741 138.552 15.6906 138.552 14.6092C138.552 13.523 137.674 12.6461 136.596 12.6461C135.501 12.6461 134.625 13.523 134.625 14.6092C134.625 14.7253 134.641 14.8387 134.66 14.951C133.824 14.1675 132.932 13.3319 131.978 12.4207C131.978 12.4207 139.692 24.2009 139.275 36.4031ZM160.499 19.6808L162.852 24.7323L160.499 29.7852L158.147 24.7323L160.499 19.6808Z" fill="white"/>
<path d="M181.502 41.2228C181.502 39.8265 172.095 38.6952 160.499 38.6952C148.9 38.6952 139.504 39.8265 139.504 41.2228C139.504 42.618 148.9 43.7467 160.499 43.7467C172.095 43.7467 181.502 42.6177 181.502 41.2228Z" fill="white"/>
<path d="M320.192 154.238C319.559 149.006 308.77 142.511 307.507 137.392C306.235 132.276 312.776 121.513 310.909 116.59C309.036 111.658 297.006 107.94 294.553 103.268C292.106 98.6036 295.877 86.5928 292.886 82.2544C289.896 77.9123 277.316 77.1817 273.824 73.2366C270.327 69.2897 271.116 56.7198 267.171 53.2255C263.231 49.7314 250.841 52.0258 246.503 49.0337C242.167 46.0352 239.926 33.6469 235.25 31.1943C230.582 28.7431 219.121 33.9383 214.197 32.0674C210.822 30.7894 207.354 25.0257 203.864 21.0977C204.123 23.023 204.3 24.9719 204.3 26.967C204.3 31.9222 203.443 36.6666 201.926 41.1076C258.357 58.7281 299.315 111.389 299.315 173.629C299.315 250.301 237.167 312.443 160.499 312.443C83.8355 312.443 21.6795 250.301 21.6795 173.629C21.6795 111.389 62.6401 58.7281 119.068 41.1076C117.557 36.6666 116.695 31.9222 116.695 26.967C116.695 24.9719 116.877 23.0178 117.132 21.0928C113.641 25.0208 110.173 30.7897 106.805 32.0677C101.879 33.9386 90.4046 28.7434 85.7393 31.1946C81.0691 33.6472 78.8274 46.0355 74.489 49.034C70.1588 52.0258 57.7664 49.7314 53.8291 53.2258C49.8839 56.7201 50.6697 69.2902 47.1757 73.2369C43.6784 77.182 31.1045 77.9126 28.106 82.2547C25.1154 86.5931 28.8921 98.6039 26.4448 103.268C23.9869 107.94 11.9589 111.658 10.0889 116.59C8.21651 121.513 14.7512 132.273 13.4934 137.392C12.2355 142.511 1.43078 149.006 0.808396 154.239C0.172925 159.474 9.09715 168.358 9.09715 173.63C9.09715 178.899 0.172925 187.786 0.808396 193.018C1.43078 198.248 12.2355 204.746 13.4934 209.865C14.7512 214.986 8.21651 225.743 10.0889 230.675C11.9587 235.601 23.9869 239.32 26.4448 243.988C28.8921 248.658 25.1157 260.676 28.106 265.011C31.1045 269.352 43.6787 270.077 47.1757 274.025C50.6697 277.973 49.8839 290.545 53.8291 294.036C57.7664 297.53 70.1588 295.236 74.489 298.229C78.8274 301.228 81.0691 313.615 85.7393 316.067C90.4046 318.52 101.879 313.322 106.805 315.194C111.734 317.069 116.879 328.557 121.998 329.82C127.117 331.08 137.02 323.293 142.246 323.928C147.486 324.562 155.224 334.493 160.498 334.493C165.77 334.493 173.513 324.561 178.748 323.928C183.975 323.293 193.88 331.08 198.996 329.82C204.118 328.557 209.257 317.069 214.197 315.194C219.12 313.322 230.582 318.52 235.25 316.067C239.925 313.615 242.167 301.228 246.503 298.229C250.841 295.236 263.23 297.53 267.17 294.036C271.116 290.545 270.327 277.973 273.824 274.025C277.316 270.077 289.895 269.352 292.886 265.011C295.877 260.676 292.105 248.658 294.553 243.988C297.005 239.32 309.036 235.601 310.909 230.675C312.776 225.743 306.235 214.981 307.506 209.865C308.77 204.746 319.559 198.248 320.191 193.018C320.819 187.786 311.9 178.899 311.9 173.63C311.901 168.358 320.819 159.473 320.192 154.238Z" fill="white"/>
<path d="M131.361 281.166C131.361 281.166 127.284 286.009 127.487 291.161C124.942 288.73 121.142 285.521 116.381 282.614C116.975 280.806 115.915 278.611 113.789 277.509C111.471 276.314 108.813 276.863 107.832 278.746C106.861 280.631 107.943 283.123 110.258 284.318C112.31 285.389 114.639 285.059 115.809 283.659C119.043 285.629 121.814 287.738 124.038 289.645C122.041 289.363 119.787 289.371 118.162 289.442C117.553 288.374 116.295 287.564 114.765 287.422C112.489 287.209 110.519 288.543 110.346 290.386C110.174 292.235 111.878 293.91 114.14 294.113C116.411 294.329 118.394 293 118.566 291.154C118.579 290.969 118.566 290.795 118.555 290.618C120.739 290.545 123.904 290.579 125.847 291.254C128.637 293.823 130.211 295.708 130.241 295.753L131.161 295.002C131.137 294.962 129.834 293.393 127.497 291.17C132.964 287.831 131.361 281.166 131.361 281.166Z" fill="white"/>
<path d="M126.567 290.249C127.674 285.953 123.421 281.786 123.421 281.786C123.421 281.786 122.273 286.182 126.567 290.249Z" fill="white"/>
<path d="M210.743 284.318C213.058 283.123 214.14 280.631 213.169 278.746C212.188 276.863 209.53 276.314 207.212 277.509C205.087 278.611 204.029 280.806 204.622 282.615C199.859 285.521 196.059 288.73 193.517 291.162C193.717 286.009 189.64 281.166 189.64 281.166C189.64 281.166 188.04 287.831 193.506 291.169C191.167 293.393 189.867 294.962 189.843 295.001L190.761 295.753C190.79 295.708 192.367 293.823 195.157 291.254C197.101 290.579 200.265 290.545 202.452 290.618C202.436 290.795 202.425 290.969 202.436 291.154C202.607 293 204.593 294.329 206.859 294.113C209.124 293.91 210.828 292.235 210.659 290.386C210.482 288.543 208.515 287.208 206.236 287.422C204.707 287.564 203.449 288.374 202.837 289.442C201.218 289.371 198.96 289.363 196.964 289.645C199.192 287.738 201.961 285.628 205.192 283.658C206.365 285.059 208.691 285.388 210.743 284.318Z" fill="white"/>
<path d="M194.437 290.249C198.728 286.182 197.578 281.786 197.578 281.786C197.578 281.786 193.33 285.953 194.437 290.249Z" fill="white"/>
<path d="M140.834 245.493C140.593 245.071 139.418 245.406 139.038 245.651C138.468 246.004 137.677 246.825 137.94 247.181C138.202 247.539 139.246 247.737 139.881 247.21C140.514 246.677 141.074 245.918 140.834 245.493Z" fill="white"/>
<path d="M162.379 236.102C162.593 235.775 162.43 235.353 162.103 235.142C161.781 234.926 161.341 235.021 161.127 235.348C160.918 235.667 161.037 236.255 161.361 236.466C161.689 236.674 162.166 236.429 162.379 236.102Z" fill="white"/>
<path d="M165.547 238.399C166.045 238.557 166.539 238.196 166.699 237.7C166.86 237.202 166.583 236.661 166.085 236.503C165.584 236.342 164.885 236.706 164.721 237.204C164.555 237.708 165.056 238.241 165.547 238.399Z" fill="white"/>
<path d="M168.688 242.782C168.363 243.014 168.268 243.597 168.493 243.916C168.722 244.233 169.265 244.18 169.579 243.945C169.893 243.726 169.898 243.273 169.674 242.956C169.439 242.635 169.002 242.56 168.688 242.782Z" fill="white"/>
<path d="M162.896 241.788C162.379 241.849 162.002 242.318 162.058 242.843C162.118 243.36 162.741 243.861 163.26 243.798C163.783 243.75 164.073 243.075 164.007 242.553C163.946 242.033 163.419 241.733 162.896 241.788Z" fill="white"/>
<path d="M141.377 246.553C141.047 246.756 140.744 247.086 140.834 247.3C140.913 247.516 141.482 247.432 141.68 247.339C141.973 247.21 142.397 246.875 142.3 246.685C142.192 246.495 141.712 246.345 141.377 246.553Z" fill="white"/>
<path d="M168.363 190.634L162.757 180.921C131.796 199.337 114.694 231.421 115.158 265.145L126.414 265.261C126.242 235.675 141.298 206.813 168.363 190.634Z" fill="white"/>
<path d="M188.467 249.365L187.636 248.903L188.461 248.325C188.743 248.122 191.196 246.35 191.033 244.436C190.927 243.241 189.819 242.141 187.733 241.158C185.808 240.248 184.337 240.127 183.371 240.805C181.441 242.165 181.881 246.285 181.881 246.321L181.997 247.374L181.056 246.902C180.22 246.472 177.738 245.583 176.327 246.575C175.346 247.261 174.943 248.772 175.127 251.066C175.312 253.194 175.939 254.515 177.005 255.019C179.001 255.947 182.082 253.875 182.532 253.558C182.543 253.553 182.543 253.553 182.543 253.553L183.384 252.931L183.439 253.975C183.439 254.012 183.653 257.322 185.497 258.224C186.591 258.759 188.11 258.358 190.017 257.024L190.373 257.461L190.051 257.002C191.789 255.779 192.62 254.568 192.498 253.395C192.267 251.055 188.509 249.388 188.467 249.365Z" fill="white"/>
<path d="M165.441 244.42C164.993 244.691 164.806 245.459 165.067 245.912C165.328 246.352 166.058 246.34 166.512 246.065C166.957 245.804 167.013 245.195 166.741 244.742C166.473 244.298 165.892 244.146 165.441 244.42Z" fill="white"/>
<path d="M177.369 228.483C178.079 228.069 178.327 227.162 177.91 226.453C177.504 225.738 176.591 225.498 175.882 225.909C175.173 226.318 174.927 227.228 175.336 227.935C175.747 228.649 176.655 228.895 177.369 228.483Z" fill="white"/>
<path d="M148.052 224.944C147.342 225.355 147.092 226.27 147.506 226.977C147.919 227.682 148.827 227.927 149.534 227.52C150.246 227.109 150.488 226.199 150.079 225.487C149.671 224.778 148.761 224.535 148.052 224.944Z" fill="white"/>
<path d="M136.459 247.466C136.258 247.711 136.045 248.207 136.216 248.326C136.395 248.447 136.894 248.365 137.089 248.028C137.287 247.687 137.413 247.26 137.239 247.107C137.065 246.957 136.598 247.295 136.459 247.466Z" fill="white"/>
<path d="M169.213 192.108C142.719 207.947 127.983 236.192 128.12 265.145H211.384L169.213 192.108ZM147.015 250.812C146.069 250.942 143.813 250.77 143.813 250.77C143.813 250.77 146.738 255.343 147.616 256.638C148.484 257.933 147.909 258.413 147.477 258.771C147.047 259.119 145.952 259.518 145.177 259.932C144.402 260.349 143.468 259.623 143.186 258.848C142.909 258.075 140.683 252.508 140.683 252.508C140.683 252.508 139.929 253.806 139.185 254.903C138.268 256.264 136.153 256.087 135.203 254.497C134.249 252.906 134.399 249.14 135.699 247.458C136.991 245.773 140.549 243.584 143.313 243.858C145.757 244.103 147.967 246.29 148.756 247.967C149.55 249.636 147.962 250.686 147.015 250.812ZM150.254 228.654C148.885 229.443 147.134 228.979 146.343 227.618C145.554 226.247 146.031 224.493 147.398 223.702C148.761 222.913 150.504 223.385 151.298 224.751C152.092 226.115 151.614 227.866 150.254 228.654ZM163.223 252.608C157.773 253.415 152.696 249.657 151.883 244.201C151.077 238.75 154.842 233.673 160.294 232.866C165.747 232.057 170.821 235.817 171.626 241.274C172.435 246.73 168.672 251.799 163.223 252.608ZM165.655 214.045C166.702 215.128 168.245 217.452 166.256 220.482C164.703 219.303 164.152 217.974 164.041 216.777C163.722 217.064 163.297 217.304 162.741 217.473C162.559 216.729 162.598 216.099 162.757 215.577C159.064 218.072 155.095 215.622 155.095 215.622C155.095 215.622 158.585 210.297 164.08 213.069C161.195 210.123 163.481 206.624 163.481 206.624C163.481 206.624 166.891 208.984 165.46 212.592C166.86 211.107 170.069 208.739 174.416 211.437C171.378 215.629 167.456 214.762 165.655 214.045ZM175.196 224.72C176.565 223.929 178.316 224.398 179.102 225.767C179.893 227.13 179.421 228.884 178.052 229.67C176.686 230.458 174.93 229.994 174.144 228.626C173.358 227.26 173.83 225.501 175.196 224.72ZM190.7 257.933L190.661 257.954C188.395 259.531 186.486 259.966 185.001 259.243C183.268 258.405 182.652 256.234 182.43 254.979C181.138 255.749 178.548 256.991 176.53 256.047C175.064 255.359 174.215 253.718 174.012 251.16C173.78 248.439 174.334 246.577 175.676 245.646C177.269 244.528 179.487 245.071 180.7 245.514C180.673 244.024 180.887 241.165 182.725 239.881C184.044 238.955 185.885 239.04 188.224 240.132C190.695 241.295 192.019 242.706 192.167 244.343C192.327 246.271 190.79 247.893 189.761 248.755C191.056 249.47 193.409 251.073 193.627 253.28C193.789 254.887 192.808 256.456 190.7 257.933Z" fill="white"/>
<path d="M142.229 244.757C141.799 245.037 141.396 245.459 141.514 245.73C141.625 246.007 142.363 245.896 142.619 245.78C142.996 245.614 143.537 245.174 143.416 244.939C143.284 244.697 142.659 244.486 142.229 244.757Z" fill="white"/>
<path d="M164.811 247.83C164.455 248.149 164.424 248.858 164.74 249.214C165.056 249.563 165.684 249.412 166.043 249.098C166.38 248.787 166.325 248.241 166.014 247.891C165.686 247.54 165.151 247.516 164.811 247.83Z" fill="white"/>
<path d="M158.875 239.995C158.236 240.377 157.965 241.466 158.347 242.107C158.727 242.737 159.75 242.719 160.394 242.326C161.021 241.951 161.098 241.094 160.72 240.453C160.341 239.818 159.513 239.607 158.875 239.995Z" fill="white"/>
<path d="M160.597 243.386C160.273 243.17 159.829 243.262 159.624 243.592C159.405 243.919 159.526 244.502 159.856 244.712C160.188 244.926 160.666 244.676 160.877 244.349C161.082 244.019 160.921 243.599 160.597 243.386Z" fill="white"/>
<path d="M156.195 240.321C156.712 240.361 157.108 239.894 157.158 239.377C157.192 238.85 156.81 238.399 156.277 238.354C155.76 238.315 155.156 238.826 155.114 239.349C155.069 239.868 155.673 240.277 156.195 240.321Z" fill="white"/>
<path d="M161.984 237.993C161.549 238.273 161.367 239.053 161.641 239.493C161.923 239.945 162.646 239.905 163.097 239.628C163.535 239.348 163.574 238.742 163.292 238.299C163.018 237.851 162.427 237.716 161.984 237.993Z" fill="white"/>
<path d="M159.407 237.861C159.866 237.603 160.03 237.025 159.782 236.569C159.531 236.107 158.761 235.894 158.303 236.142C157.852 236.392 157.841 237.12 158.094 237.576C158.347 238.038 158.951 238.109 159.407 237.861Z" fill="white"/>
<path d="M165.855 239.945C165.117 240.04 164.74 240.989 164.84 241.725C164.938 242.466 165.686 242.875 166.425 242.774C167.158 242.677 167.683 241.999 167.586 241.266C167.488 240.53 166.594 239.844 165.855 239.945Z" fill="white"/>
<path d="M156.385 245.14C155.747 245.52 155.475 246.611 155.858 247.247C156.248 247.885 157.266 247.861 157.904 247.479C158.542 247.094 158.619 246.24 158.231 245.601C157.851 244.963 157.023 244.755 156.385 245.14Z" fill="white"/>
<path d="M154.6 244.201C154.276 243.995 153.83 244.085 153.624 244.414C153.41 244.736 153.534 245.322 153.856 245.535C154.186 245.744 154.666 245.495 154.882 245.169C155.09 244.842 154.927 244.42 154.6 244.201Z" fill="white"/>
<path d="M159.027 248.302C158.582 248.573 158.384 249.343 158.653 249.792C158.922 250.243 159.647 250.227 160.098 249.953C160.552 249.686 160.597 249.085 160.333 248.629C160.056 248.178 159.476 248.036 159.027 248.302Z" fill="white"/>
<path d="M161.797 245.369C161.161 245.746 160.879 246.843 161.269 247.484C161.646 248.12 162.678 248.088 163.313 247.705C163.946 247.331 164.02 246.466 163.643 245.83C163.26 245.201 162.43 244.982 161.797 245.369Z" fill="white"/>
<path d="M156.712 243.613C157.16 243.346 157.213 242.735 156.944 242.289C156.675 241.83 156.092 241.69 155.647 241.957C155.191 242.231 155.006 243.001 155.27 243.449C155.536 243.9 156.264 243.885 156.712 243.613Z" fill="white"/>
<path d="M154.726 241.274C154.948 240.939 154.782 240.517 154.452 240.308C154.133 240.095 153.69 240.185 153.476 240.517C153.26 240.836 153.384 241.416 153.713 241.632C154.043 241.843 154.521 241.595 154.726 241.274Z" fill="white"/>
<path d="M67.3456 193.448C66.7049 192.921 65.6605 193.119 65.402 193.48C65.1356 193.839 65.9243 194.656 66.4964 195.009C66.8788 195.255 68.0442 195.59 68.2893 195.168C68.5299 194.746 67.9784 193.984 67.3456 193.448Z" fill="white"/>
<path d="M89.5585 205.516C89.8909 205.307 90.0544 204.886 89.8406 204.556C89.6242 204.229 89.1473 203.984 88.8201 204.195C88.4981 204.406 88.3742 204.994 88.5827 205.313C88.7991 205.64 89.2316 205.732 89.5585 205.516Z" fill="white"/>
<path d="M93.0029 202.264C92.507 202.422 92.0111 202.955 92.1801 203.453C92.3383 203.954 93.0398 204.316 93.5409 204.158C94.0394 204 94.3163 203.459 94.1528 202.965C93.9972 202.465 93.5092 202.106 93.0029 202.264Z" fill="white"/>
<path d="M97.1327 197.705C97.354 197.388 97.3514 196.937 97.0376 196.713C96.7215 196.478 96.1779 196.428 95.954 196.744C95.7245 197.064 95.8245 197.646 96.1517 197.878C96.4626 198.103 96.9032 198.026 97.1327 197.705Z" fill="white"/>
<path d="M90.7163 196.863C90.2047 196.8 89.5771 197.298 89.5166 197.815C89.4663 198.338 89.8409 198.812 90.3632 198.87C90.8719 198.928 91.4076 198.625 91.4629 198.108C91.526 197.586 91.2413 196.911 90.7163 196.863Z" fill="white"/>
<path d="M69.7481 193.973C69.8534 193.786 69.4288 193.448 69.1388 193.319C68.9437 193.232 68.3661 193.15 68.287 193.359C68.1997 193.575 68.5057 193.902 68.8355 194.105C69.1679 194.318 69.6504 194.16 69.7481 193.973Z" fill="white"/>
<path d="M53.8695 175.397L42.611 175.515C42.1521 209.24 59.2543 241.327 90.2126 259.74L95.8245 250.027C68.7538 233.845 53.6929 204.983 53.8695 175.397Z" fill="white"/>
<path d="M108.517 193.759L109.454 193.29L109.34 194.337C109.34 194.376 108.895 198.496 110.835 199.856C111.793 200.534 113.264 200.413 115.192 199.503C117.28 198.522 118.383 197.417 118.491 196.222C118.657 194.31 116.199 192.538 115.915 192.332L115.089 191.757L115.925 191.298C115.967 191.274 119.723 189.605 119.963 187.269C120.074 186.092 119.246 184.877 117.515 183.658L117.832 183.199L117.476 183.634C115.567 182.303 114.053 181.904 112.958 182.437C111.115 183.339 110.899 186.651 110.899 186.683L110.841 187.727L109.999 187.11C109.999 187.11 109.997 187.11 109.986 187.105C109.538 186.785 106.458 184.713 104.464 185.641C103.396 186.142 102.773 187.471 102.589 189.594C102.399 191.889 102.8 193.405 103.788 194.083C105.197 195.075 107.681 194.187 108.517 193.759Z" fill="white"/>
<path d="M92.5282 194.748C92.2592 195.202 92.4491 195.972 92.9002 196.238C93.346 196.512 93.9312 196.362 94.2005 195.916C94.4695 195.468 94.4218 194.862 93.9681 194.595C93.5197 194.324 92.7891 194.3 92.5282 194.748Z" fill="white"/>
<path d="M103.338 214.751C104.05 215.163 104.962 214.92 105.369 214.211C105.783 213.501 105.54 212.591 104.823 212.18C104.116 211.769 103.204 212.011 102.792 212.721C102.381 213.433 102.623 214.345 103.338 214.751Z" fill="white"/>
<path d="M76.9951 213.143C76.2803 212.731 75.3758 212.974 74.9616 213.683C74.5478 214.39 74.8034 215.308 75.5078 215.714C76.225 216.126 77.1298 215.886 77.5436 215.171C77.9526 214.461 77.7045 213.551 76.9951 213.143Z" fill="white"/>
<path d="M63.6743 192.335C63.503 192.454 63.7168 192.944 63.9198 193.195C64.0516 193.364 64.5262 193.701 64.6978 193.551C64.8717 193.406 64.7426 192.973 64.5419 192.631C64.3523 192.293 63.8564 192.214 63.6743 192.335Z" fill="white"/>
<path d="M138.84 175.515H55.5729C55.4411 204.469 70.1754 232.716 96.6738 248.547L138.84 175.515ZM101.463 189.503C101.676 186.942 102.526 185.299 103.982 184.616C106.005 183.667 108.594 184.914 109.886 185.681C110.108 184.426 110.733 182.259 112.458 181.417C113.942 180.695 115.852 181.127 118.122 182.704L118.157 182.731C120.269 184.205 121.253 185.774 121.089 187.383C120.868 189.59 118.518 191.188 117.218 191.908C118.244 192.765 119.792 194.387 119.623 196.317C119.481 197.95 118.152 199.366 115.683 200.532C113.35 201.624 111.501 201.708 110.182 200.785C108.349 199.498 108.136 196.637 108.165 195.146C106.944 195.59 104.726 196.13 103.136 195.015C101.793 194.084 101.233 192.222 101.463 189.503ZM101.603 212.038C102.386 210.669 104.145 210.202 105.514 210.991C106.877 211.774 107.346 213.53 106.563 214.894C105.772 216.265 104.016 216.732 102.655 215.941C101.286 215.152 100.819 213.401 101.603 212.038ZM63.1526 193.2C61.8523 191.518 61.7048 187.757 62.6593 186.167C63.6191 184.571 65.7236 184.397 66.6467 185.76C67.3854 186.858 68.1418 188.15 68.1418 188.15C68.1418 188.15 70.3731 182.586 70.6448 181.81C70.9298 181.037 71.8578 180.312 72.6332 180.729C73.4167 181.143 74.5003 181.541 74.9328 181.892C75.3653 182.245 75.9481 182.728 75.075 184.023C74.1967 185.32 71.2695 189.893 71.2695 189.893C71.2695 189.893 73.5243 189.716 74.4762 189.848C75.4205 189.977 77 191.021 76.2142 192.693C75.4284 194.373 73.2183 196.56 70.771 196.805C68.0049 197.077 64.45 194.888 63.1526 193.2ZM78.7567 215.914C77.9682 217.275 76.2197 217.745 74.8537 216.959C73.4877 216.173 73.0153 214.409 73.8041 213.042C74.5899 211.682 76.3463 211.215 77.7097 212.006C79.076 212.789 79.5451 214.546 78.7567 215.914ZM79.3421 196.462C80.1518 191.004 85.2283 187.24 90.6794 188.05C96.1305 188.859 99.8991 193.928 99.0894 199.387C98.2745 204.844 93.2032 208.604 87.7522 207.797C82.3037 206.987 78.5324 201.908 79.3421 196.462ZM90.9432 234.035C90.9432 234.035 88.6566 230.538 91.542 227.589C86.0409 230.361 82.5518 225.039 82.5518 225.039C82.5518 225.039 86.5234 222.589 90.2129 225.082C90.0547 224.562 90.0177 223.929 90.1995 223.185C90.7585 223.357 91.1857 223.597 91.5051 223.882C91.6051 222.692 92.1618 221.358 93.7125 220.179C95.7035 223.207 94.158 225.533 93.1061 226.619C94.918 225.899 98.8419 225.032 101.875 229.225C97.5285 231.925 94.3218 229.552 92.9136 228.07C94.3532 231.68 90.9432 234.035 90.9432 234.035Z" fill="white"/>
<path d="M70.0753 194.88C69.8194 194.764 69.0836 194.651 68.973 194.931C68.857 195.205 69.2525 195.624 69.685 195.904C70.1204 196.175 70.7401 195.964 70.8745 195.722C70.9981 195.484 70.4522 195.046 70.0753 194.88Z" fill="white"/>
<path d="M93.4694 192.77C93.7835 192.42 93.8414 191.876 93.4985 191.563C93.1425 191.249 92.5067 191.104 92.1958 191.449C91.8765 191.803 91.9137 192.512 92.2644 192.831C92.6073 193.15 93.1506 193.119 93.4694 192.77Z" fill="white"/>
<path d="M87.8444 198.332C87.2115 197.945 86.1831 197.924 85.8033 198.553C85.4235 199.192 85.6951 200.286 86.3306 200.669C86.9687 201.048 87.7993 200.843 88.1794 200.202C88.5619 199.569 88.4801 198.707 87.8444 198.332Z" fill="white"/>
<path d="M87.3197 195.954C86.9849 196.159 86.8637 196.74 87.0797 197.066C87.2828 197.401 87.7312 197.488 88.0607 197.272C88.385 197.056 88.5488 196.642 88.3298 196.312C88.1215 195.982 87.6466 195.737 87.3197 195.954Z" fill="white"/>
<path d="M83.6514 200.339C83.132 200.381 82.5279 200.795 82.5701 201.31C82.6204 201.837 83.2163 202.349 83.741 202.304C84.2604 202.264 84.6589 201.808 84.6141 201.283C84.5742 200.769 84.1708 200.297 83.6514 200.339Z" fill="white"/>
<path d="M89.1025 201.17C88.8204 201.607 89.0025 202.383 89.4451 202.668C89.8854 202.945 90.4738 202.807 90.7507 202.365C91.0302 201.913 90.9935 201.31 90.5503 201.032C90.1047 200.753 89.382 200.714 89.1025 201.17Z" fill="white"/>
<path d="M86.8637 202.802C86.4074 202.547 85.8036 202.623 85.5529 203.084C85.3022 203.538 85.3077 204.266 85.7614 204.516C86.2175 204.769 86.9902 204.553 87.238 204.092C87.4884 203.633 87.3252 203.058 86.8637 202.802Z" fill="white"/>
<path d="M92.2988 198.934C92.1958 199.669 92.5727 200.619 93.3115 200.714C94.0499 200.814 94.9491 200.128 95.0387 199.392C95.1387 198.659 94.6219 197.99 93.8838 197.889C93.148 197.786 92.3962 198.195 92.2988 198.934Z" fill="white"/>
<path d="M85.3656 193.179C84.7219 192.802 83.704 192.773 83.3193 193.412C82.9316 194.052 83.2082 195.136 83.8465 195.524C84.4846 195.903 85.3074 195.7 85.6898 195.06C86.0723 194.421 86.0037 193.564 85.3656 193.179Z" fill="white"/>
<path d="M81.3149 195.122C80.9906 195.341 80.8667 195.922 81.0802 196.246C81.291 196.573 81.7339 196.665 82.0559 196.46C82.3857 196.243 82.5462 195.821 82.338 195.492C82.1245 195.165 81.6444 194.919 81.3149 195.122Z" fill="white"/>
<path d="M87.7891 192.029C88.0607 191.578 88.0081 190.974 87.557 190.705C87.1059 190.436 86.3835 190.418 86.1145 190.864C85.8481 191.317 86.0409 192.084 86.4864 192.354C86.9346 192.625 87.5175 192.483 87.7891 192.029Z" fill="white"/>
<path d="M89.2555 195.294C89.8913 195.674 90.7164 195.463 91.1044 194.83C91.4787 194.194 91.4077 193.332 90.7693 192.95C90.1338 192.57 89.1107 192.544 88.7282 193.179C88.335 193.817 88.62 194.915 89.2555 195.294Z" fill="white"/>
<path d="M83.1056 198.701C83.5456 198.973 84.1313 198.828 84.3977 198.374C84.6717 197.926 84.6164 197.312 84.1709 197.05C83.7198 196.776 82.9974 196.76 82.7254 197.211C82.4567 197.657 82.644 198.43 83.1056 198.701Z" fill="white"/>
<path d="M81.1723 199.026C80.8402 199.242 80.7213 199.825 80.9298 200.141C81.1485 200.476 81.5891 200.568 81.9055 200.352C82.238 200.141 82.4014 199.719 82.1906 199.387C81.9794 199.065 81.4992 198.815 81.1723 199.026Z" fill="white"/>
<path d="M252.719 195.168C252.962 195.59 254.127 195.255 254.52 195.009C255.082 194.656 255.876 193.839 255.612 193.48C255.348 193.119 254.304 192.921 253.666 193.448C253.036 193.984 252.477 194.746 252.719 195.168Z" fill="white"/>
<path d="M231.171 204.556C230.954 204.886 231.118 205.307 231.445 205.516C231.775 205.732 232.21 205.64 232.423 205.313C232.637 204.994 232.508 204.406 232.188 204.195C231.862 203.984 231.389 204.229 231.171 204.556Z" fill="white"/>
<path d="M228.006 202.264C227.513 202.106 227.014 202.465 226.851 202.965C226.691 203.459 226.964 203.999 227.471 204.158C227.967 204.316 228.671 203.955 228.834 203.453C228.992 202.955 228.502 202.423 228.006 202.264Z" fill="white"/>
<path d="M224.862 197.878C225.187 197.646 225.287 197.064 225.057 196.744C224.833 196.428 224.29 196.478 223.971 196.713C223.66 196.937 223.655 197.388 223.876 197.705C224.111 198.026 224.546 198.103 224.862 197.878Z" fill="white"/>
<path d="M230.656 198.87C231.171 198.812 231.545 198.338 231.49 197.815C231.431 197.299 230.807 196.8 230.295 196.863C229.765 196.911 229.483 197.586 229.541 198.108C229.601 198.625 230.134 198.928 230.656 198.87Z" fill="white"/>
<path d="M252.171 194.105C252.506 193.902 252.811 193.575 252.719 193.359C252.64 193.15 252.068 193.232 251.867 193.319C251.577 193.448 251.155 193.786 251.261 193.973C251.358 194.16 251.838 194.318 252.171 194.105Z" fill="white"/>
<path d="M230.796 259.739C261.752 241.326 278.862 209.24 278.392 175.515L267.142 175.396C267.313 204.983 252.258 233.844 225.189 250.026L230.796 259.739Z" fill="white"/>
<path d="M205.086 191.299L205.917 191.758L205.089 192.333C204.812 192.538 202.356 194.311 202.523 196.223C202.625 197.417 203.73 198.522 205.819 199.503C207.745 200.413 209.216 200.534 210.173 199.857C212.112 198.496 211.677 194.377 211.677 194.337L211.555 193.29L212.489 193.76C213.327 194.187 215.809 195.076 217.222 194.084C218.211 193.406 218.604 191.89 218.425 189.596C218.238 187.472 217.61 186.143 216.542 185.642C214.556 184.714 211.468 186.787 211.022 187.106C211.009 187.111 211.009 187.111 211.009 187.111L210.168 187.729L210.105 186.684C210.105 186.652 209.899 183.34 208.048 182.438C206.962 181.906 205.445 182.304 203.538 183.635L203.174 183.2L203.499 183.659C201.758 184.878 200.938 186.094 201.051 187.27C201.283 189.606 205.044 191.275 205.086 191.299Z" fill="white"/>
<path d="M228.109 196.238C228.562 195.972 228.75 195.202 228.481 194.748C228.22 194.3 227.492 194.323 227.036 194.595C226.59 194.862 226.545 195.468 226.809 195.916C227.078 196.362 227.661 196.513 228.109 196.238Z" fill="white"/>
<path d="M216.186 212.18C215.472 212.591 215.224 213.501 215.638 214.211C216.047 214.92 216.959 215.163 217.669 214.751C218.383 214.345 218.626 213.433 218.214 212.721C217.808 212.011 216.896 211.769 216.186 212.18Z" fill="white"/>
<path d="M245.501 215.714C246.205 215.308 246.459 214.39 246.045 213.683C245.631 212.974 244.726 212.731 244.014 213.143C243.301 213.551 243.059 214.461 243.476 215.171C243.879 215.885 244.789 216.125 245.501 215.714Z" fill="white"/>
<path d="M257.092 193.195C257.292 192.944 257.505 192.454 257.339 192.335C257.157 192.214 256.657 192.293 256.461 192.631C256.261 192.974 256.139 193.406 256.311 193.551C256.48 193.701 256.952 193.364 257.092 193.195Z" fill="white"/>
<path d="M224.341 248.547C250.831 232.716 265.568 204.469 265.438 175.515H182.166L224.341 248.547ZM246.535 189.848C247.484 189.716 249.734 189.893 249.734 189.893C249.734 189.893 246.812 185.32 245.936 184.023C245.063 182.728 245.641 182.245 246.07 181.892C246.508 181.541 247.598 181.143 248.376 180.729C249.148 180.312 250.079 181.037 250.364 181.81C250.638 182.586 252.869 188.15 252.869 188.15C252.869 188.15 253.621 186.858 254.359 185.761C255.277 184.397 257.398 184.571 258.349 186.167C259.304 187.757 259.156 191.518 257.859 193.2C256.554 194.888 253.001 197.077 250.24 196.806C247.793 196.56 245.586 194.374 244.792 192.694C244.006 191.022 245.593 189.978 246.535 189.848ZM243.296 212.006C244.663 211.215 246.419 211.682 247.207 213.042C247.991 214.409 247.519 216.173 246.16 216.959C244.792 217.745 243.038 217.275 242.252 215.914C241.458 214.546 241.936 212.789 243.296 212.006ZM230.327 188.05C235.78 187.24 240.854 191.003 241.669 196.462C242.479 201.908 238.708 206.988 233.254 207.797C227.808 208.604 222.732 204.844 221.924 199.387C221.113 193.928 224.881 188.859 230.327 188.05ZM227.898 226.619C226.851 225.532 225.306 223.206 227.294 220.179C228.847 221.357 229.398 222.692 229.509 223.881C229.821 223.596 230.25 223.356 230.807 223.185C230.992 223.928 230.955 224.562 230.796 225.081C234.486 222.589 238.46 225.039 238.46 225.039C238.46 225.039 234.971 230.361 229.467 227.589C232.355 230.537 230.069 234.034 230.069 234.034C230.069 234.034 226.661 231.679 228.096 228.069C226.688 229.551 223.486 231.925 219.135 229.224C222.172 225.031 226.089 225.899 227.898 226.619ZM218.351 215.941C216.993 216.732 215.232 216.265 214.451 214.894C213.66 213.53 214.129 211.774 215.498 210.991C216.864 210.202 218.62 210.669 219.406 212.038C220.192 213.401 219.717 215.152 218.351 215.941ZM202.85 182.731L202.89 182.704C205.155 181.127 207.064 180.695 208.554 181.417C210.279 182.259 210.896 184.427 211.128 185.681C212.41 184.914 215.005 183.667 217.022 184.616C218.486 185.299 219.335 186.942 219.541 189.503C219.773 192.222 219.214 194.084 217.876 195.015C216.284 196.13 214.066 195.59 212.85 195.146C212.879 196.637 212.663 199.498 210.822 200.785C209.506 201.708 207.66 201.624 205.331 200.532C202.852 199.366 201.526 197.95 201.381 196.317C201.222 194.387 202.765 192.765 203.794 191.908C202.491 191.188 200.141 189.59 199.917 187.383C199.759 185.774 200.74 184.205 202.85 182.731Z" fill="white"/>
<path d="M251.327 195.903C251.752 195.624 252.149 195.204 252.039 194.93C251.928 194.65 251.187 194.764 250.929 194.88C250.554 195.046 250.011 195.484 250.135 195.721C250.274 195.964 250.892 196.175 251.327 195.903Z" fill="white"/>
<path d="M228.744 192.831C229.095 192.512 229.132 191.802 228.816 191.449C228.502 191.104 227.866 191.249 227.515 191.563C227.167 191.876 227.228 192.42 227.539 192.77C227.861 193.119 228.399 193.15 228.744 192.831Z" fill="white"/>
<path d="M234.673 200.669C235.311 200.287 235.585 199.192 235.203 198.554C234.829 197.924 233.8 197.945 233.159 198.332C232.526 198.707 232.452 199.569 232.832 200.202C233.209 200.843 234.037 201.048 234.673 200.669Z" fill="white"/>
<path d="M232.953 197.272C233.28 197.488 233.721 197.401 233.934 197.066C234.14 196.74 234.027 196.159 233.694 195.954C233.365 195.737 232.884 195.982 232.674 196.312C232.468 196.641 232.626 197.056 232.953 197.272Z" fill="white"/>
<path d="M237.36 200.339C236.833 200.297 236.442 200.769 236.4 201.283C236.355 201.808 236.746 202.264 237.265 202.304C237.79 202.349 238.389 201.837 238.436 201.31C238.478 200.795 237.88 200.381 237.36 200.339Z" fill="white"/>
<path d="M231.566 202.668C232.004 202.383 232.183 201.608 231.906 201.17C231.629 200.714 230.904 200.753 230.456 201.032C230.016 201.31 229.973 201.913 230.256 202.365C230.535 202.807 231.123 202.944 231.566 202.668Z" fill="white"/>
<path d="M234.14 202.802C233.684 203.058 233.518 203.633 233.771 204.092C234.024 204.553 234.794 204.77 235.248 204.517C235.701 204.266 235.712 203.538 235.454 203.085C235.203 202.623 234.599 202.547 234.14 202.802Z" fill="white"/>
<path d="M227.697 200.714C228.431 200.619 228.816 199.669 228.716 198.934C228.618 198.195 227.861 197.787 227.123 197.889C226.39 197.989 225.867 198.659 225.97 199.392C226.057 200.128 226.962 200.814 227.697 200.714Z" fill="white"/>
<path d="M237.165 195.524C237.801 195.136 238.072 194.052 237.695 193.411C237.31 192.773 236.284 192.802 235.638 193.179C235.008 193.564 234.937 194.421 235.319 195.059C235.701 195.7 236.527 195.903 237.165 195.524Z" fill="white"/>
<path d="M238.953 196.46C239.273 196.666 239.715 196.573 239.926 196.247C240.14 195.922 240.027 195.342 239.697 195.123C239.37 194.92 238.882 195.165 238.674 195.492C238.46 195.821 238.62 196.244 238.953 196.46Z" fill="white"/>
<path d="M234.528 192.354C234.976 192.084 235.164 191.317 234.9 190.864C234.623 190.418 233.903 190.436 233.449 190.705C233.001 190.974 232.954 191.578 233.223 192.029C233.491 192.483 234.074 192.625 234.528 192.354Z" fill="white"/>
<path d="M231.756 195.294C232.389 194.915 232.669 193.817 232.284 193.179C231.904 192.544 230.875 192.57 230.242 192.95C229.601 193.332 229.53 194.195 229.907 194.83C230.295 195.463 231.118 195.674 231.756 195.294Z" fill="white"/>
<path d="M236.835 197.05C236.387 197.312 236.337 197.926 236.608 198.374C236.875 198.828 237.466 198.973 237.909 198.701C238.362 198.43 238.549 197.657 238.275 197.211C238.014 196.76 237.284 196.776 236.835 197.05Z" fill="white"/>
<path d="M238.821 199.387C238.608 199.719 238.771 200.141 239.098 200.353C239.417 200.569 239.86 200.476 240.079 200.141C240.29 199.825 240.163 199.242 239.836 199.026C239.515 198.815 239.029 199.065 238.821 199.387Z" fill="white"/>
</svg>
