<svg width="67" height="49" viewBox="0 0 67 49" fill="none" xmlns="http://www.w3.org/2000/svg">
<path d="M21.2131 34.5286C21.2131 36.342 22.6885 37.8173 24.502 37.8173C26.3154 37.8173 27.7909 36.342 27.7909 34.5286C27.7909 32.7152 26.3156 31.2397 24.502 31.2397C22.6886 31.2397 21.2131 32.7152 21.2131 34.5286ZM26.0701 34.5286C26.0701 35.393 25.3666 36.0965 24.502 36.0965C23.6374 36.0965 22.934 35.393 22.934 34.5286C22.934 33.664 23.6374 32.9605 24.502 32.9605C25.3666 32.9605 26.0701 33.664 26.0701 34.5286Z" fill="#273949"/>
<path d="M20.455 11.8334C20.455 10.0201 18.9797 8.54475 17.1661 8.54475C15.3526 8.54475 13.8773 10.0201 13.8773 11.8334C13.8773 13.6468 15.3526 15.1221 17.1661 15.1221C18.9797 15.1221 20.455 13.6468 20.455 11.8334ZM15.5983 11.8334C15.5983 10.969 16.3017 10.2656 17.1663 10.2656C18.0309 10.2656 18.7344 10.969 18.7344 11.8334C18.7344 12.6979 18.0309 13.4013 17.1663 13.4013C16.3015 13.4013 15.5983 12.6981 15.5983 11.8334Z" fill="#273949"/>
<path d="M4.39766 0.605087C1.47952 8.07097 -1.409e-06 15.9531 -1.05582e-06 24.0327C-6.99566e-07 32.1829 1.50285 40.1264 4.46706 47.6422C4.64048 48.082 5.13608 48.2994 5.57719 48.1292L65.6941 24.9383C66.0261 24.8104 66.2448 24.4912 66.2448 24.1356C66.2448 23.78 66.0259 23.4609 65.6941 23.3329L5.50892 0.115608C5.06686 -0.0549433 4.57012 0.163982 4.39766 0.605087ZM36.9908 34.1667C36.9432 33.8718 36.9189 33.5718 36.9189 33.2688C36.9189 30.1912 39.4216 27.6874 42.498 27.6874C44.4093 27.6874 46.1624 28.665 47.1796 30.2361L36.9908 34.1667ZM62.9938 24.1356L48.8092 29.6074C47.514 27.3736 45.1203 25.9666 42.498 25.9666C38.4728 25.9666 35.1981 29.2422 35.1981 33.2688C35.1981 33.7864 35.2528 34.2973 35.3593 34.7961L13.2127 43.3394C10.8863 37.1756 9.70429 30.6851 9.70429 24.0316C9.70429 17.4437 10.8637 11.0145 13.1459 4.90618L36.9833 14.1019C35.6466 14.8372 34.7388 16.2592 34.7388 17.8896C34.7388 20.2718 36.6768 22.21 39.0592 22.21C41.4414 22.21 43.3796 20.2718 43.3796 17.8896C43.3796 17.3951 43.2949 16.9202 43.1414 16.4774L62.9938 24.1356ZM41.6586 17.8894C41.6586 19.3229 40.4925 20.489 39.059 20.489C37.6256 20.489 36.4594 19.3229 36.4594 17.8894C36.4594 16.456 37.6256 15.2898 39.059 15.2898C40.4925 15.2898 41.6586 16.456 41.6586 17.8894ZM11.5404 4.28669C9.18193 10.5935 7.98347 17.2309 7.98347 24.0316C7.98347 30.8979 9.20449 37.5966 11.6073 43.9587L5.75998 46.2143C3.07951 39.1366 1.72082 31.6784 1.72082 24.0327C1.72082 16.4565 3.05714 9.0591 5.6942 2.03165L11.5404 4.28669Z" fill="#273949"/>
<path d="M25.6139 20.3807L27.1324 17.0381C27.2269 16.8299 27.2349 16.5936 27.1546 16.38C27.0745 16.1664 26.9127 15.9932 26.7049 15.899C24.7171 14.9959 22.4967 14.9211 20.4527 15.6882C18.4088 16.4553 16.7857 17.9724 15.8828 19.9601C15.396 21.0316 15.1494 22.1675 15.1494 23.3362C15.1494 26.5361 17.0314 29.459 19.9441 30.782C20.3768 30.9785 20.887 30.7871 21.0833 30.3546L22.6019 27.0118L25.5695 28.36C27.3976 29.1906 29.5605 28.3789 30.3911 26.5507C30.6079 26.0734 30.7176 25.5671 30.7176 25.0463C30.7176 23.6209 29.8792 22.3186 28.5817 21.7293L25.6139 20.3807ZM27.8699 23.2956C28.5546 23.6067 28.9968 24.2937 28.9968 25.0459C28.9968 25.3197 28.9387 25.5864 28.8242 25.8384C28.3861 26.8027 27.2454 27.2308 26.2812 26.7929L22.53 25.0889C22.0973 24.8924 21.5871 25.0837 21.3906 25.5162L19.896 28.8065C18.0338 27.6371 16.8698 25.5723 16.8698 23.3358C16.8698 22.4144 17.0648 21.5178 17.4493 20.6716C18.1621 19.1024 19.4434 17.9045 21.0571 17.2989C22.3992 16.7953 23.8374 16.7515 25.1863 17.1609L23.6911 20.4522C23.5967 20.6605 23.5886 20.8968 23.669 21.1104C23.7491 21.3239 23.9108 21.497 24.1185 21.5914L27.8699 23.2956Z" fill="#273949"/>
</svg>
